<?xml version="1.0" encoding="UTF-8"?>
<svg xmlns="http://www.w3.org/2000/svg" xmlns:xlink="http://www.w3.org/1999/xlink" width="16px" height="16px" viewBox="0 0 16 16" version="1.1">
<g id="surface1">
<path style=" stroke:none;fill-rule:nonzero;fill:rgb(0%,18.039216%,44.313725%);fill-opacity:1;" d="M 7.175781 7.613281 C 7.175781 7.171875 7.207031 7.015625 7.019531 6.753906 L 6.890625 6.585938 L 6.890625 6.28125 L 8.175781 6.28125 L 8.175781 6.585938 L 8.046875 6.722656 C 7.851562 6.933594 7.851562 6.988281 7.855469 7.613281 L 7.855469 10.121094 L 7.808594 10.242188 C 7.585938 10.390625 7.0625 10.769531 6.589844 10.769531 C 5.507812 10.769531 4.976562 9.289062 4.976562 6.082031 C 4.976562 2.636719 5.730469 1.148438 6.71875 1.148438 C 6.984375 1.148438 7.464844 1.148438 7.800781 1.894531 C 7.910156 2.140625 7.921875 2.417969 7.921875 2.527344 C 7.921875 2.738281 7.90625 2.78125 7.890625 2.863281 L 7.648438 4.09375 L 7.558594 4.09375 C 7.558594 3.488281 7.292969 1.867188 6.597656 1.867188 C 5.789062 1.867188 5.75 3.355469 5.75 5.867188 C 5.75 8.066406 5.839844 10.046875 6.800781 10.046875 C 7.113281 10.046875 7.167969 9.613281 7.175781 9.125 Z M 7.175781 7.613281 "/>
<path style=" stroke:none;fill-rule:nonzero;fill:rgb(0%,18.039216%,44.313725%);fill-opacity:1;" d="M 8.496094 10.28125 L 8.726562 10.035156 C 8.914062 9.84375 8.914062 9.480469 8.914062 8.679688 L 8.914062 2.90625 C 8.914062 2.460938 8.867188 2.242188 8.738281 2.003906 L 8.527344 1.632812 L 8.527344 1.328125 L 9.480469 1.328125 L 9.539062 1.425781 C 9.644531 1.796875 9.859375 2.796875 10.152344 3.84375 L 11.164062 7.476562 C 11.207031 7.628906 11.226562 7.695312 11.246094 7.695312 C 11.289062 7.695312 11.289062 7.558594 11.289062 7.308594 L 11.289062 2.917969 C 11.289062 2.28125 11.285156 2.15625 11.082031 1.9375 L 10.78125 1.632812 L 10.78125 1.328125 L 11.980469 1.328125 L 11.980469 1.632812 L 11.828125 1.785156 C 11.605469 2.019531 11.5625 2.15625 11.5625 3.066406 L 11.5625 8.511719 C 11.5625 9.34375 11.566406 10.1875 11.566406 10.476562 L 11.53125 10.585938 L 11.238281 10.585938 L 11.179688 10.476562 C 11.132812 10.324219 10.863281 9.3125 10.585938 8.335938 L 9.359375 4.011719 C 9.292969 3.773438 9.261719 3.648438 9.234375 3.648438 C 9.1875 3.648438 9.1875 3.789062 9.1875 3.984375 L 9.1875 8.925781 C 9.1875 9.589844 9.1875 9.800781 9.40625 9.996094 L 9.714844 10.28125 L 9.714844 10.585938 L 8.496094 10.585938 Z M 8.496094 10.28125 "/>
<path style=" stroke:none;fill-rule:nonzero;fill:rgb(0%,18.039216%,44.313725%);fill-opacity:1;" d="M 12.289062 10.28125 L 12.519531 10.078125 C 12.691406 9.925781 12.695312 9.675781 12.695312 8.804688 L 12.695312 2.832031 C 12.695312 2.171875 12.695312 2.003906 12.519531 1.851562 L 12.289062 1.632812 L 12.289062 1.328125 L 14.023438 1.328125 C 14.628906 1.328125 15.222656 1.675781 15.222656 3.773438 C 15.222656 5.695312 14.679688 6.882812 13.832031 6.882812 C 13.796875 6.882812 13.75 6.867188 13.71875 6.867188 L 13.640625 6.371094 L 13.679688 6.261719 C 14.0625 6.234375 14.523438 5.820312 14.457031 3.878906 C 14.40625 2.367188 14.242188 2.082031 13.769531 2.082031 C 13.453125 2.082031 13.429688 2.210938 13.429688 2.554688 L 13.429688 8.804688 C 13.429688 9.734375 13.425781 9.925781 13.632812 10.078125 L 13.90625 10.28125 L 13.90625 10.585938 L 12.289062 10.585938 Z M 12.289062 10.28125 "/>
<path style=" stroke:none;fill-rule:nonzero;fill:rgb(0%,18.039216%,44.313725%);fill-opacity:1;" d="M 15.996094 11.828125 L 4.976562 11.828125 L 4.976562 12.019531 L 15.996094 12.019531 Z M 15.996094 11.828125 "/>
<path style=" stroke:none;fill-rule:nonzero;fill:rgb(98.823529%,42.352941%,14.509804%);fill-opacity:1;" d="M 2.824219 5.910156 C 2.824219 6.765625 2.5625 7.457031 2.238281 7.457031 C 1.914062 7.457031 1.652344 6.765625 1.652344 5.910156 C 1.652344 5.058594 1.914062 4.367188 2.238281 4.367188 C 2.5625 4.367188 2.824219 5.058594 2.824219 5.910156 Z M 2.824219 5.910156 "/>
<path style=" stroke:none;fill-rule:nonzero;fill:rgb(98.823529%,42.352941%,14.509804%);fill-opacity:1;" d="M 1.265625 3.328125 L 0 3.328125 L 0.253906 5.398438 L 0.886719 5.398438 L 0.886719 5.390625 C 1.523438 5.390625 2.042969 4.027344 2.042969 2.335938 L 2.042969 0.675781 L 1.265625 0 Z M 1.265625 3.328125 "/>
<path style=" stroke:none;fill-rule:nonzero;fill:rgb(98.823529%,42.352941%,14.509804%);fill-opacity:1;" d="M 1.261719 8.488281 L 1.261719 11.820312 L 2.042969 11.152344 L 2.042969 9.488281 C 2.042969 7.800781 1.523438 6.433594 0.882812 6.429688 L 0.253906 6.429688 L 0 8.488281 Z M 1.261719 8.488281 "/>
<path style=" stroke:none;fill-rule:nonzero;fill:rgb(98.823529%,42.352941%,14.509804%);fill-opacity:1;" d="M 3.210938 8.492188 L 4.476562 8.492188 L 4.21875 6.429688 L 3.589844 6.429688 C 2.949219 6.433594 2.433594 7.800781 2.433594 9.488281 L 2.433594 11.144531 L 3.210938 11.820312 Z M 3.210938 8.492188 "/>
<path style=" stroke:none;fill-rule:nonzero;fill:rgb(98.823529%,42.352941%,14.509804%);fill-opacity:1;" d="M 3.214844 3.339844 L 3.214844 0.00390625 L 2.433594 0.675781 L 2.433594 2.339844 C 2.433594 4.027344 2.953125 5.394531 3.589844 5.398438 L 4.21875 5.398438 L 4.476562 3.339844 Z M 3.214844 3.339844 "/>
<path style=" stroke:none;fill-rule:nonzero;fill:rgb(0%,18.039216%,44.313725%);fill-opacity:1;" d="M 15.707031 1.480469 C 15.828125 1.480469 15.929688 1.738281 15.929688 2.105469 C 15.929688 2.464844 15.828125 2.726562 15.707031 2.726562 L 15.707031 2.875 C 15.871094 2.875 16 2.527344 16 2.105469 C 16 1.675781 15.871094 1.328125 15.707031 1.328125 Z M 15.707031 2.21875 L 15.707031 2.035156 L 15.710938 2.035156 C 15.75 2.035156 15.777344 2.019531 15.777344 1.90625 C 15.777344 1.800781 15.742188 1.785156 15.710938 1.785156 L 15.707031 1.785156 L 15.707031 1.660156 L 15.71875 1.660156 C 15.796875 1.660156 15.839844 1.734375 15.839844 1.917969 C 15.839844 2.066406 15.808594 2.140625 15.753906 2.152344 L 15.84375 2.539062 L 15.78125 2.539062 Z M 15.707031 2.726562 C 15.585938 2.726562 15.488281 2.464844 15.488281 2.105469 C 15.488281 1.738281 15.585938 1.480469 15.707031 1.480469 L 15.707031 1.328125 C 15.546875 1.328125 15.414062 1.675781 15.414062 2.105469 C 15.414062 2.527344 15.546875 2.875 15.707031 2.875 Z M 15.707031 1.660156 L 15.707031 1.785156 L 15.65625 1.785156 L 15.65625 2.035156 L 15.707031 2.035156 L 15.707031 2.21875 L 15.695312 2.164062 L 15.65625 2.164062 L 15.65625 2.539062 L 15.597656 2.539062 L 15.597656 1.660156 Z M 15.707031 1.660156 "/>
<path style=" stroke:none;fill-rule:nonzero;fill:rgb(0%,18.039216%,44.313725%);fill-opacity:1;" d="M 5.242188 15.929688 C 5.117188 15.929688 5.042969 15.835938 5.011719 15.792969 C 4.988281 15.714844 4.96875 15.457031 4.96875 15.214844 C 4.980469 15.171875 5.011719 15.167969 5.019531 15.207031 C 5.046875 15.4375 5.136719 15.765625 5.253906 15.765625 C 5.351562 15.765625 5.398438 15.582031 5.398438 15.40625 C 5.398438 15.117188 5.296875 14.945312 5.214844 14.839844 C 5.117188 14.710938 5.011719 14.5 5.011719 14.144531 C 5.011719 13.742188 5.128906 13.464844 5.324219 13.464844 C 5.367188 13.464844 5.421875 13.480469 5.476562 13.523438 C 5.496094 13.539062 5.507812 13.542969 5.523438 13.550781 C 5.535156 13.628906 5.546875 13.824219 5.546875 14.058594 C 5.539062 14.101562 5.507812 14.105469 5.496094 14.070312 C 5.472656 13.890625 5.414062 13.628906 5.316406 13.628906 C 5.226562 13.628906 5.179688 13.78125 5.179688 13.960938 C 5.179688 14.125 5.234375 14.273438 5.300781 14.367188 L 5.390625 14.492188 C 5.476562 14.609375 5.582031 14.816406 5.582031 15.207031 C 5.582031 15.644531 5.445312 15.929688 5.242188 15.929688 Z M 5.242188 15.929688 "/>
<path style=" stroke:none;fill-rule:nonzero;fill:rgb(0%,18.039216%,44.313725%);fill-opacity:1;" d="M 6.679688 14.449219 C 6.679688 14.546875 6.679688 14.554688 6.71875 14.554688 L 6.808594 14.554688 C 6.878906 14.554688 6.894531 14.53125 6.910156 14.359375 L 6.917969 14.269531 C 6.925781 14.242188 6.960938 14.242188 6.964844 14.273438 C 6.964844 14.386719 6.960938 14.515625 6.960938 14.652344 C 6.960938 14.785156 6.964844 14.914062 6.964844 15.027344 C 6.960938 15.058594 6.925781 15.0625 6.917969 15.03125 L 6.910156 14.941406 C 6.894531 14.773438 6.878906 14.742188 6.808594 14.742188 L 6.71875 14.742188 C 6.679688 14.742188 6.679688 14.746094 6.679688 14.855469 L 6.679688 15.277344 C 6.679688 15.441406 6.683594 15.554688 6.699219 15.613281 C 6.71875 15.679688 6.746094 15.707031 6.84375 15.707031 C 6.960938 15.707031 7.003906 15.695312 7.078125 15.296875 C 7.089844 15.253906 7.125 15.269531 7.128906 15.3125 C 7.125 15.496094 7.089844 15.785156 7.074219 15.882812 C 7 15.875 6.871094 15.871094 6.761719 15.871094 L 6.585938 15.871094 C 6.523438 15.871094 6.457031 15.875 6.355469 15.882812 C 6.34375 15.859375 6.34375 15.773438 6.355469 15.757812 L 6.417969 15.734375 C 6.480469 15.707031 6.488281 15.6875 6.488281 15.359375 L 6.488281 14.03125 C 6.488281 13.707031 6.480469 13.6875 6.417969 13.65625 L 6.382812 13.636719 C 6.371094 13.617188 6.375 13.535156 6.386719 13.511719 C 6.449219 13.519531 6.515625 13.523438 6.582031 13.523438 L 6.867188 13.523438 C 6.953125 13.523438 7.03125 13.519531 7.046875 13.511719 C 7.046875 13.570312 7.058594 13.824219 7.066406 14.0625 C 7.058594 14.101562 7.027344 14.109375 7.015625 14.078125 C 7 13.953125 6.980469 13.847656 6.964844 13.796875 C 6.9375 13.730469 6.898438 13.6875 6.832031 13.6875 L 6.722656 13.6875 C 6.679688 13.6875 6.679688 13.695312 6.679688 13.824219 Z M 6.679688 14.449219 "/>
<path style=" stroke:none;fill-rule:nonzero;fill:rgb(0%,18.039216%,44.313725%);fill-opacity:1;" d="M 8.738281 15.46875 C 8.738281 15.617188 8.742188 15.691406 8.765625 15.703125 C 8.773438 15.71875 8.769531 15.777344 8.761719 15.789062 C 8.738281 15.800781 8.703125 15.8125 8.667969 15.84375 C 8.621094 15.882812 8.503906 15.929688 8.429688 15.929688 C 8.339844 15.929688 8.261719 15.902344 8.164062 15.804688 C 8.007812 15.636719 7.898438 15.242188 7.898438 14.730469 C 7.898438 14.285156 7.976562 13.894531 8.136719 13.65625 C 8.226562 13.523438 8.335938 13.464844 8.453125 13.464844 C 8.601562 13.464844 8.675781 13.550781 8.71875 13.550781 C 8.722656 13.660156 8.722656 13.90625 8.738281 14.125 C 8.730469 14.164062 8.695312 14.167969 8.6875 14.132812 C 8.640625 13.796875 8.558594 13.628906 8.433594 13.628906 C 8.21875 13.628906 8.113281 14.097656 8.113281 14.660156 C 8.113281 15.171875 8.179688 15.472656 8.269531 15.628906 C 8.332031 15.742188 8.402344 15.765625 8.453125 15.765625 C 8.53125 15.765625 8.546875 15.726562 8.546875 15.492188 L 8.546875 15.269531 C 8.546875 15.078125 8.539062 15.054688 8.472656 15.03125 L 8.414062 15.011719 C 8.398438 14.988281 8.398438 14.90625 8.414062 14.886719 C 8.507812 14.894531 8.574219 14.898438 8.640625 14.898438 C 8.707031 14.898438 8.773438 14.894531 8.816406 14.886719 C 8.828125 14.90625 8.828125 14.988281 8.816406 15.011719 L 8.785156 15.023438 C 8.746094 15.042969 8.738281 15.078125 8.738281 15.269531 Z M 8.738281 15.46875 "/>
<path style=" stroke:none;fill-rule:nonzero;fill:rgb(0%,18.039216%,44.313725%);fill-opacity:1;" d="M 9.695312 14.035156 C 9.695312 13.703125 9.6875 13.683594 9.625 13.652344 L 9.589844 13.632812 C 9.582031 13.613281 9.578125 13.535156 9.59375 13.511719 C 9.660156 13.519531 9.726562 13.523438 9.792969 13.523438 C 9.855469 13.523438 9.921875 13.519531 9.988281 13.511719 C 10 13.535156 10 13.613281 9.988281 13.632812 L 9.957031 13.648438 C 9.894531 13.675781 9.886719 13.703125 9.886719 14.035156 L 9.886719 14.859375 C 9.886719 15.273438 9.902344 15.734375 10.109375 15.734375 C 10.28125 15.734375 10.332031 15.335938 10.332031 14.847656 L 10.332031 14.417969 C 10.332031 14.128906 10.328125 13.859375 10.3125 13.765625 C 10.300781 13.691406 10.273438 13.667969 10.234375 13.652344 L 10.199219 13.632812 C 10.1875 13.605469 10.191406 13.535156 10.199219 13.511719 C 10.273438 13.519531 10.324219 13.523438 10.378906 13.523438 C 10.429688 13.523438 10.480469 13.519531 10.53125 13.511719 C 10.539062 13.535156 10.539062 13.605469 10.53125 13.632812 L 10.503906 13.648438 C 10.472656 13.667969 10.445312 13.691406 10.433594 13.765625 C 10.417969 13.859375 10.414062 14.128906 10.414062 14.417969 L 10.414062 14.816406 C 10.414062 15.148438 10.402344 15.457031 10.328125 15.671875 C 10.269531 15.839844 10.167969 15.929688 10.058594 15.929688 C 9.957031 15.929688 9.867188 15.886719 9.792969 15.730469 C 9.722656 15.574219 9.695312 15.3125 9.695312 14.925781 Z M 9.695312 14.035156 "/>
<path style=" stroke:none;fill-rule:nonzero;fill:rgb(0%,18.039216%,44.313725%);fill-opacity:1;" d="M 11.410156 14.101562 C 11.410156 13.742188 11.40625 13.703125 11.351562 13.683594 L 11.316406 13.667969 C 11.300781 13.652344 11.300781 13.5625 11.316406 13.542969 C 11.417969 13.527344 11.523438 13.511719 11.652344 13.511719 C 11.765625 13.511719 11.863281 13.558594 11.914062 13.640625 C 11.992188 13.761719 12.035156 13.941406 12.035156 14.167969 C 12.035156 14.484375 11.953125 14.617188 11.890625 14.699219 C 11.878906 14.71875 11.878906 14.738281 11.882812 14.777344 C 11.972656 15.253906 12.027344 15.523438 12.09375 15.667969 C 12.128906 15.742188 12.164062 15.765625 12.183594 15.769531 C 12.195312 15.785156 12.195312 15.839844 12.1875 15.859375 C 12.167969 15.886719 12.125 15.894531 12.082031 15.894531 C 11.957031 15.894531 11.878906 15.773438 11.820312 15.519531 C 11.777344 15.332031 11.746094 15.15625 11.714844 14.96875 C 11.699219 14.871094 11.679688 14.84375 11.644531 14.84375 C 11.597656 14.84375 11.59375 14.851562 11.59375 14.921875 L 11.59375 15.359375 C 11.59375 15.6875 11.601562 15.710938 11.664062 15.738281 L 11.699219 15.757812 C 11.710938 15.773438 11.710938 15.859375 11.699219 15.882812 C 11.628906 15.875 11.566406 15.871094 11.503906 15.871094 C 11.433594 15.871094 11.375 15.875 11.304688 15.882812 C 11.296875 15.859375 11.296875 15.773438 11.304688 15.757812 L 11.34375 15.738281 C 11.402344 15.710938 11.410156 15.6875 11.410156 15.359375 Z M 11.59375 14.550781 C 11.59375 14.675781 11.597656 14.6875 11.679688 14.6875 C 11.726562 14.6875 11.753906 14.65625 11.78125 14.585938 C 11.804688 14.527344 11.828125 14.414062 11.828125 14.203125 C 11.828125 13.882812 11.757812 13.675781 11.652344 13.675781 C 11.597656 13.675781 11.59375 13.6875 11.59375 13.859375 Z M 11.59375 14.550781 "/>
<path style=" stroke:none;fill-rule:nonzero;fill:rgb(0%,18.039216%,44.313725%);fill-opacity:1;" d="M 13.832031 14.6875 C 13.832031 15.460938 13.636719 15.929688 13.34375 15.929688 C 13.074219 15.929688 12.878906 15.457031 12.878906 14.714844 C 12.878906 14.011719 13.078125 13.464844 13.359375 13.464844 C 13.640625 13.464844 13.832031 13.964844 13.832031 14.6875 Z M 13.347656 13.628906 C 13.183594 13.628906 13.09375 14.039062 13.09375 14.632812 C 13.09375 15.066406 13.152344 15.765625 13.371094 15.765625 C 13.546875 15.765625 13.617188 15.308594 13.617188 14.734375 C 13.617188 14.125 13.515625 13.628906 13.347656 13.628906 Z M 13.347656 13.628906 "/>
<path style=" stroke:none;fill-rule:nonzero;fill:rgb(0%,18.039216%,44.313725%);fill-opacity:1;" d="M 14.902344 15.929688 C 14.777344 15.929688 14.699219 15.835938 14.671875 15.792969 C 14.648438 15.714844 14.628906 15.457031 14.628906 15.214844 C 14.640625 15.171875 14.671875 15.167969 14.679688 15.207031 C 14.707031 15.4375 14.796875 15.765625 14.914062 15.765625 C 15.011719 15.765625 15.058594 15.582031 15.058594 15.40625 C 15.058594 15.117188 14.957031 14.945312 14.875 14.839844 C 14.777344 14.710938 14.671875 14.5 14.671875 14.144531 C 14.671875 13.742188 14.789062 13.464844 14.984375 13.464844 C 15.027344 13.464844 15.082031 13.480469 15.136719 13.523438 C 15.15625 13.539062 15.167969 13.542969 15.183594 13.550781 C 15.195312 13.628906 15.207031 13.824219 15.207031 14.058594 C 15.199219 14.101562 15.167969 14.105469 15.15625 14.070312 C 15.132812 13.890625 15.074219 13.628906 14.976562 13.628906 C 14.886719 13.628906 14.839844 13.78125 14.839844 13.960938 C 14.839844 14.125 14.894531 14.273438 14.960938 14.367188 L 15.050781 14.492188 C 15.132812 14.609375 15.242188 14.816406 15.242188 15.207031 C 15.242188 15.644531 15.105469 15.929688 14.902344 15.929688 Z M 14.902344 15.929688 "/>
</g>
</svg>
